<svg aria-hidden="true" style="position: absolute; width: 0; height: 0; overflow: hidden;" version="1.1" xmlns="http://www.w3.org/2000/svg" xmlns:xlink="http://www.w3.org/1999/xlink">
<defs>

<!-- Search Icon -->
<path id="icon-search" fill="currentColor" d="M15.5 14h-.79l-.28-.27A6.471 6.471 0 0 0 16 9.5A6.5 6.5 0 1 0 9.5 16c1.61 0 3.09-.59 4.23-1.57l.27.28v.79l5 4.99L20.49 19l-4.99-5zm-6 0C7.01 14 5 11.99 5 9.5S7.01 5 9.5 5S14 7.01 14 9.5S11.99 14 9.5 14z"
/>

<!-- Location Icon -->
<path id="icon-location" fill="currentColor" d="M12 12q.825 0 1.413-.588Q14 10.825 14 10t-.587-1.413Q12.825 8 12 8q-.825 0-1.412.587Q10 9.175 10 10q0 .825.588 1.412Q11.175 12 12 12Zm0 10q-4.025-3.425-6.012-6.363Q4 12.7 4 10.2q0-3.75 2.413-5.975Q8.825 2 12 2t5.587 2.225Q20 6.45 20 10.2q0 2.5-1.987 5.437Q16.025 18.575 12 22Z"/>

<!-- Water Icon -->
<path id="icon-water"  fill="currentColor" d="M12.275 19q.3-.025.513-.237q.212-.213.212-.513q0-.35-.225-.562q-.225-.213-.575-.188q-1.025.075-2.175-.562q-1.15-.638-1.45-2.313q-.05-.275-.263-.45Q8.1 14 7.825 14q-.35 0-.575.262q-.225.263-.15.613q.425 2.275 2 3.25q1.575.975 3.175.875ZM12 22q-3.425 0-5.712-2.35Q4 17.3 4 13.8q0-2.5 1.988-5.437Q7.975 5.425 12 2q4.025 3.425 6.013 6.363Q20 11.3 20 13.8q0 3.5-2.288 5.85Q15.425 22 12 22Zm0-2q2.6 0 4.3-1.762Q18 16.475 18 13.8q0-1.825-1.512-4.125Q14.975 7.375 12 4.65Q9.025 7.375 7.513 9.675Q6 11.975 6 13.8q0 2.675 1.7 4.438Q9.4 20 12 20Zm0-8Z"/>



<!-- Weather Condition -->

<path  id="icon-lightning__rainy" fill="currentColor" d="M4.5 13.59c.5.28.64.91.37 1.37c-.28.48-.87.64-1.37.37A4.98 4.98 0 0 1 1 11a5 5 0 0 1 5-5c1-2.35 3.3-4 6-4c3.43 0 6.24 2.66 6.5 6.03L19 8a4 4 0 0 1 4 4a4 4 0 0 1-4 4a1 1 0 0 1-1-1a1 1 0 0 1 1-1a2 2 0 0 0 2-2a2 2 0 0 0-2-2h-2V9a5 5 0 0 0-5-5C9.5 4 7.45 5.82 7.06 8.19C6.73 8.07 6.37 8 6 8a3 3 0 0 0-3 3c0 1.11.6 2.08 1.5 2.6v-.01m5-2.59h3l-2 4h2l-3.75 7l.75-5H7l2.5-6m8 7.67c0 1.29-1 2.33-2.25 2.33S13 19.96 13 18.67c0-1.55 2.25-4.17 2.25-4.17s2.25 2.62 2.25 4.17Z"/>

<path id="icon-lightning" fill="currentColor" d="M6 16a5 5 0 0 1-5-5a5 5 0 0 1 5-5c1-2.35 3.3-4 6-4c3.43 0 6.24 2.66 6.5 6.03L19 8a4 4 0 0 1 4 4a4 4 0 0 1-4 4h-1a1 1 0 0 1-1-1a1 1 0 0 1 1-1h1a2 2 0 0 0 2-2a2 2 0 0 0-2-2h-2V9a5 5 0 0 0-5-5C9.5 4 7.45 5.82 7.06 8.19C6.73 8.07 6.37 8 6 8a3 3 0 0 0-3 3a3 3 0 0 0 3 3h1a1 1 0 0 1 1 1a1 1 0 0 1-1 1H6m6-5h3l-2 4h2l-3.75 7l.75-5H9.5l2.5-6Z"/>

<path  id="icon-cloudy" fill="currentColor" d="M6 19a5 5 0 0 1-5-5a5 5 0 0 1 5-5c1-2.35 3.3-4 6-4c3.43 0 6.24 2.66 6.5 6.03L19 11a4 4 0 0 1 4 4a4 4 0 0 1-4 4H6m13-6h-2v-1a5 5 0 0 0-5-5c-2.5 0-4.55 1.82-4.94 4.19C6.73 11.07 6.37 11 6 11a3 3 0 0 0-3 3a3 3 0 0 0 3 3h13a2 2 0 0 0 2-2a2 2 0 0 0-2-2Z"/>

<path id="icon-rainy" fill="currentColor" d="M6 14.03a1 1 0 0 1 1 1c0 .55-.45 1-1 1c-2.76 0-5-2.24-5-5s2.24-5 5-5c1-2.35 3.3-4 6-4c3.43 0 6.24 2.66 6.5 6.03l.5-.03a4 4 0 0 1 4 4c0 2.2-1.79 4-4 4h-1c-.55 0-1-.45-1-1c0-.56.45-1 1-1h1a2 2 0 0 0 2-2a2 2 0 0 0-2-2h-2v-1c0-2.76-2.24-5-5-5c-2.5 0-4.55 1.81-4.94 4.18c-.33-.12-.69-.18-1.06-.18a3 3 0 0 0-3 3a3 3 0 0 0 3 3m6 .12c.18.24.37.51.56.79C13 15.56 14 17.03 14 18a2 2 0 0 1-2 2a2 2 0 0 1-2-2c0-.97 1-2.44 1.44-3.06c.19-.28.38-.54.56-.79m0-3.12l-.5.56s-.85.96-1.71 2.22C8.93 15.06 8 16.56 8 18a4 4 0 0 0 4 4a4 4 0 0 0 4-4c0-1.44-.93-2.94-1.79-4.19c-.86-1.26-1.71-2.22-1.71-2.22"/>

<path id="icon-heavy__snow" fill="currentColor" d="M4 16.36c-.14-.54.18-1.11.73-1.25L7 14.5l-1.67-1.64c-.4-.4-.4-1.05 0-1.46c.4-.4 1.07-.4 1.46 0l1.66 1.65l.59-2.25c.14-.56.71-.88 1.25-.73c.56.14.88.71.71 1.26l-.58 2.25l2.25-.58a.99.99 0 0 1 1.26.71c.15.54-.17 1.11-.73 1.25l-2.25.59l1.65 1.66c.4.39.4 1.06 0 1.46c-.4.4-1.06.4-1.45 0L9.5 17l-.61 2.27c-.14.56-.71.87-1.25.73c-.56-.14-.87-.71-.73-1.26l.59-2.24l-2.24.59c-.55.14-1.12-.17-1.26-.73M1 10a5 5 0 0 1 5-5c1-2.35 3.3-4 6-4c3.43 0 6.24 2.66 6.5 6.03L19 7a4 4 0 0 1 4 4a4 4 0 0 1-4 4a1 1 0 0 1-1-1a1 1 0 0 1 1-1a2 2 0 0 0 2-2a2 2 0 0 0-2-2h-2V8a5 5 0 0 0-5-5C9.5 3 7.45 4.82 7.06 7.19C6.73 7.07 6.37 7 6 7a3 3 0 0 0-3 3c0 .85.35 1.61.91 2.16c.36.39.35 1-.03 1.38a.996.996 0 0 1-1.41 0A4.988 4.988 0 0 1 1 10m13.03 10.43c.1.39.47.61.88.51l1.59-.44l-.44 1.59c-.1.41.12.78.51.88c.38.11.78-.12.88-.51l.41-1.57l1.17 1.16c.27.28.74.28 1.02 0s.28-.75 0-1.02l-1.16-1.17l1.57-.41c.39-.1.62-.5.51-.88c-.1-.39-.47-.61-.88-.51l-1.59.44l.44-1.59c.1-.41-.12-.78-.51-.88a.71.71 0 0 0-.88.51l-.41 1.57l-1.17-1.16a.724.724 0 0 0-1.02 0c-.28.29-.28.75 0 1.02l1.16 1.17l-1.57.41c-.39.1-.62.5-.51.88Z"/>

<path id="icon-windy" fill="currentColor" d="m6 6l.69.06A5.499 5.499 0 0 1 12 2a5.5 5.5 0 0 1 5.5 5.5l-.08.95c.46-.29 1-.45 1.58-.45a3 3 0 0 1 3 3a3 3 0 0 1-3 3H6a4 4 0 0 1-4-4a4 4 0 0 1 4-4m0 2a2 2 0 0 0-2 2a2 2 0 0 0 2 2h13a1 1 0 0 0 1-1a1 1 0 0 0-1-1h-3.5V7.5A3.5 3.5 0 0 0 12 4a3.5 3.5 0 0 0-3.5 3.5V8H6m12 10H4a1 1 0 0 1-1-1a1 1 0 0 1 1-1h14a3 3 0 0 1 3 3a3 3 0 0 1-3 3c-.83 0-1.58-.34-2.12-.88c-.38-.39-.38-1.02 0-1.41a.996.996 0 0 1 1.41 0c.18.18.43.29.71.29a1 1 0 0 0 1-1a1 1 0 0 0-1-1Z"/>


<path id="icon-pouring" fill="currentColor" d="M9 12c.53.14.85.69.71 1.22l-1.3 4.83c-.14.54-.69.85-1.22.71a.967.967 0 0 1-.69-1.22l1.28-4.83c.14-.54.69-.85 1.22-.71m4 0c.53.14.85.69.71 1.22l-2.07 7.73c-.14.55-.69.85-1.23.71c-.53-.16-.85-.69-.71-1.23l2.08-7.72c.14-.54.69-.85 1.22-.71m4 0c.53.14.85.69.71 1.22l-1.3 4.83c-.14.54-.69.85-1.22.71a.967.967 0 0 1-.69-1.22l1.28-4.83c.14-.54.69-.85 1.22-.71m0-2V9a5 5 0 0 0-5-5C9.5 4 7.45 5.82 7.06 8.19C6.73 8.07 6.37 8 6 8a3 3 0 0 0-3 3c0 1.11.6 2.08 1.5 2.6v-.01c.5.28.64.91.37 1.37c-.28.47-.87.64-1.37.36v.01A4.98 4.98 0 0 1 1 11a5 5 0 0 1 5-5c1-2.35 3.3-4 6-4c3.43 0 6.24 2.66 6.5 6.03L19 8a4 4 0 0 1 4 4c0 1.5-.8 2.77-2 3.46c-.5.27-1.09.11-1.37-.37c-.27-.48-.13-1.09.37-1.37v.01c.6-.34 1-.99 1-1.73a2 2 0 0 0-2-2h-2Z"/>

<path id="icon-night" fill="currentColor" d="m17.75 4.09l-2.53 1.94l.91 3.06l-2.63-1.81l-2.63 1.81l.91-3.06l-2.53-1.94L12.44 4l1.06-3l1.06 3l3.19.09m3.5 6.91l-1.64 1.25l.59 1.98l-1.7-1.17l-1.7 1.17l.59-1.98L15.75 11l2.06-.05L18.5 9l.69 1.95l2.06.05m-2.28 4.95c.83-.08 1.72 1.1 1.19 1.85c-.32.45-.66.87-1.08 1.27C15.17 23 8.84 23 4.94 19.07c-3.91-3.9-3.91-10.24 0-14.14c.4-.4.82-.76 1.27-1.08c.75-.53 1.93.36 1.85 1.19c-.27 2.86.69 5.83 2.89 8.02a9.96 9.96 0 0 0 8.02 2.89m-1.64 2.02a12.08 12.08 0 0 1-7.8-3.47c-2.17-2.19-3.33-5-3.49-7.82c-2.81 3.14-2.7 7.96.31 10.98c3.02 3.01 7.84 3.12 10.98.31Z"/>

<path id="icon-cloudy__night" fill="currentColor" d="M22 10.28c-.26.02-.5.03-.74.03c-1.94 0-3.87-.74-5.35-2.22A7.518 7.518 0 0 1 13.72 2c.05-.47-.5-1-1.01-1a.69.69 0 0 0-.39.12c-.32.24-.66.52-.96.82c-2.31 2.3-2.81 5.72-1.52 8.52a5.479 5.479 0 0 0-3.15 3.6L6 14a4 4 0 0 0-4 4a4 4 0 0 0 4 4h13a3 3 0 0 0 3-3a3 3 0 0 0-3-3c-.58 0-1.12.16-1.58.45l.08-.95c0-.22 0-.45-.04-.67a7.45 7.45 0 0 0 4.6-2.19c.32-.3.58-.64.82-.96c.39-.55-.23-1.4-.84-1.4M19 18a1 1 0 0 1 1 1a1 1 0 0 1-1 1H6a2 2 0 0 1-2-2a2 2 0 0 1 2-2h2.5v-.5c0-1.56 1.03-2.86 2.44-3.32c.16-.05.32-.09.49-.12c.18-.03.37-.06.57-.06c.23 0 .45.03.66.07c.07.01.14.03.21.06c.13.03.28.07.41.12c.08.03.16.07.22.11c.13.05.24.11.34.18c.08.05.16.1.23.16c.1.07.18.14.27.22c.07.08.16.13.21.2c.08.08.14.17.21.25c.06.08.13.16.18.25c.06.09.1.18.15.28c.05.1.11.18.15.28c.17.41.26.85.26 1.32V18m1.33-5.14A5.51 5.51 0 0 0 12 10h-.13c-.46-.81-.73-1.74-.73-2.71c0-.98.25-1.92.72-2.74A9.383 9.383 0 0 0 14.5 9.5a9.347 9.347 0 0 0 4.95 2.64c-.79.46-1.69.7-2.62.72Z"/>
<!-- Weather Condition -->






</defs>
</svg>

